<svg xmlns="http://www.w3.org/2000/svg" width="500" height="500" viewBox="0 0 500 500" version="1.1"><path d="M 206.768 219.250 C 206.939 227.088, 207.174 234.622, 207.289 235.994 C 207.478 238.226, 206.681 238.817, 199.688 241.632 C 184.554 247.723, 174.769 258.414, 174.769 268.860 C 174.769 274.631, 176.692 278.644, 181.462 282.833 C 189.906 290.247, 201.365 293.361, 220.500 293.441 C 228.200 293.473, 236.412 293.157, 238.750 292.738 L 243 291.976 242.976 295.738 C 242.938 301.675, 241.279 307.354, 239.055 309.155 C 237.932 310.066, 234.760 311.120, 232.006 311.499 C 228.698 311.954, 227 312.665, 227 313.594 C 227 314.721, 229.286 315, 238.500 315 C 245.500 315, 250 315.391, 250 316 C 250 316.550, 250.675 317, 251.500 317 C 252.325 317, 253 316.550, 253 316 C 253 315.400, 257 315, 263 315 C 270.858 315, 273 314.703, 273 313.614 C 273 312.723, 271.300 311.980, 268.250 311.536 C 259.255 310.226, 257.016 306.689, 257.006 293.770 L 257 287.041 261.250 284.883 C 273.301 278.767, 284.269 269.079, 303.328 247.718 C 320.542 228.424, 321.685 226.814, 319.469 224.975 C 316.748 222.716, 302.939 224.138, 294.660 227.529 C 292.926 228.240, 292.840 227.619, 293.160 216.640 L 293.500 204.997 249.979 204.999 L 206.458 205 206.768 219.250 M 221.424 211.019 C 215.997 213.705, 213.377 218.638, 211.651 229.418 L 210.252 238.153 212.876 237.485 C 217.978 236.185, 233.563 235.061, 238.250 235.656 L 243 236.258 243 222.629 L 243 209 234.250 209.001 C 227.489 209.001, 224.573 209.460, 221.424 211.019 M 257 223.980 L 257 238.959 260.750 240.990 C 262.813 242.107, 265.243 243.548, 266.151 244.193 C 267.526 245.169, 268.669 244.583, 273.018 240.674 C 275.887 238.094, 280.431 234.750, 283.116 233.242 C 286.500 231.341, 287.998 229.865, 287.999 228.432 C 288.001 224.105, 284.934 216.311, 282.198 213.690 C 278.490 210.137, 274.261 209, 264.757 209 L 257 209 257 223.980 M 302 226.131 C 293.541 228.427, 293 228.882, 293 233.695 C 293 237.394, 292.704 238.091, 291.250 237.815 C 290.195 237.615, 289.374 236.395, 289.184 234.741 C 289.010 233.234, 288.329 232, 287.670 232 C 286.162 232, 277.736 237.699, 272.574 242.211 L 268.649 245.643 270.824 250.137 C 273.667 256.010, 273.589 259.502, 270.545 262.545 C 267.638 265.453, 266.388 265.617, 265.170 263.250 C 264.007 260.987, 264.655 259.138, 267.794 255.769 C 270.005 253.395, 270.188 252.708, 269.191 250.519 C 268.559 249.133, 267.659 248, 267.189 248 C 265.978 248, 258.069 258.878, 257.430 261.422 C 257.138 262.588, 257.034 266.582, 257.199 270.299 L 257.500 277.056 267.500 270.958 C 292.026 256.002, 321.187 230.347, 318.536 226.059 C 317.740 224.771, 306.833 224.818, 302 226.131 M 218 237.693 C 211.701 238.752, 200.409 242.264, 195.691 244.631 C 174.418 255.307, 169.362 273.574, 185.019 283.190 C 197.369 290.774, 223.082 291.424, 239.495 284.567 L 243 283.102 243 260.051 L 243 237 231.750 237.136 C 225.563 237.211, 219.375 237.461, 218 237.693 M 257 249.700 C 257 254.485, 257.360 257.972, 257.800 257.450 C 262.103 252.340, 266 246.976, 266 246.163 C 266 245.030, 259.859 241, 258.132 241 C 257.376 241, 257 243.890, 257 249.700" stroke="none" fill="#1a262f" fill-rule="evenodd"/><path d="M 0 250.002 L 0 500.004 250.250 499.752 L 500.500 499.500 500.752 249.750 L 501.004 0 250.502 0 L 0 0 0 250.002 M 0.492 250.500 C 0.492 388, 0.608 444.101, 0.750 375.170 C 0.892 306.238, 0.892 193.738, 0.750 125.170 C 0.608 56.601, 0.492 113, 0.492 250.500 M 206.768 219.250 C 206.939 227.088, 207.174 234.622, 207.289 235.994 C 207.478 238.226, 206.681 238.817, 199.688 241.632 C 184.554 247.723, 174.769 258.414, 174.769 268.860 C 174.769 274.631, 176.692 278.644, 181.462 282.833 C 189.906 290.247, 201.365 293.361, 220.500 293.441 C 228.200 293.473, 236.412 293.157, 238.750 292.738 L 243 291.976 242.976 295.738 C 242.938 301.675, 241.279 307.354, 239.055 309.155 C 237.932 310.066, 234.760 311.120, 232.006 311.499 C 228.698 311.954, 227 312.665, 227 313.594 C 227 314.721, 229.286 315, 238.500 315 C 245.500 315, 250 315.391, 250 316 C 250 316.550, 250.675 317, 251.500 317 C 252.325 317, 253 316.550, 253 316 C 253 315.400, 257 315, 263 315 C 270.858 315, 273 314.703, 273 313.614 C 273 312.723, 271.300 311.980, 268.250 311.536 C 259.255 310.226, 257.016 306.689, 257.006 293.770 L 257 287.041 261.250 284.883 C 273.301 278.767, 284.269 269.079, 303.328 247.718 C 320.542 228.424, 321.685 226.814, 319.469 224.975 C 316.748 222.716, 302.939 224.138, 294.660 227.529 C 292.926 228.240, 292.840 227.619, 293.160 216.640 L 293.500 204.997 249.979 204.999 L 206.458 205 206.768 219.250 M 221.424 211.019 C 215.997 213.705, 213.377 218.638, 211.651 229.418 L 210.252 238.153 212.876 237.485 C 217.978 236.185, 233.563 235.061, 238.250 235.656 L 243 236.258 243 222.629 L 243 209 234.250 209.001 C 227.489 209.001, 224.573 209.460, 221.424 211.019 M 257 223.980 L 257 238.959 260.750 240.990 C 262.813 242.107, 265.243 243.548, 266.151 244.193 C 267.526 245.169, 268.669 244.583, 273.018 240.674 C 275.887 238.094, 280.431 234.750, 283.116 233.242 C 286.500 231.341, 287.998 229.865, 287.999 228.432 C 288.001 224.105, 284.934 216.311, 282.198 213.690 C 278.490 210.137, 274.261 209, 264.757 209 L 257 209 257 223.980 M 302 226.131 C 293.541 228.427, 293 228.882, 293 233.695 C 293 237.394, 292.704 238.091, 291.250 237.815 C 290.195 237.615, 289.374 236.395, 289.184 234.741 C 289.010 233.234, 288.329 232, 287.670 232 C 286.162 232, 277.736 237.699, 272.574 242.211 L 268.649 245.643 270.824 250.137 C 273.667 256.010, 273.589 259.502, 270.545 262.545 C 267.638 265.453, 266.388 265.617, 265.170 263.250 C 264.007 260.987, 264.655 259.138, 267.794 255.769 C 270.005 253.395, 270.188 252.708, 269.191 250.519 C 268.559 249.133, 267.659 248, 267.189 248 C 265.978 248, 258.069 258.878, 257.430 261.422 C 257.138 262.588, 257.034 266.582, 257.199 270.299 L 257.500 277.056 267.500 270.958 C 292.026 256.002, 321.187 230.347, 318.536 226.059 C 317.740 224.771, 306.833 224.818, 302 226.131 M 218 237.693 C 211.701 238.752, 200.409 242.264, 195.691 244.631 C 174.418 255.307, 169.362 273.574, 185.019 283.190 C 197.369 290.774, 223.082 291.424, 239.495 284.567 L 243 283.102 243 260.051 L 243 237 231.750 237.136 C 225.563 237.211, 219.375 237.461, 218 237.693 M 257 249.700 C 257 254.485, 257.360 257.972, 257.800 257.450 C 262.103 252.340, 266 246.976, 266 246.163 C 266 245.030, 259.859 241, 258.132 241 C 257.376 241, 257 243.890, 257 249.700" stroke="none" fill="#fbfbfb" fill-rule="evenodd"/></svg>